<?xml version="1.0" encoding="iso-8859-1"?>
<!-- Generator: Adobe Illustrator 21.0.0, SVG Export Plug-In . SVG Version: 6.00 Build 0)  -->
<svg xmlns="http://www.w3.org/2000/svg" xmlns:xlink="http://www.w3.org/1999/xlink" version="1.1" id="Capa_1" x="0px" y="0px" viewBox="0 0 511.999 511.999" style="enable-background:new 0 0 511.999 511.999;" xml:space="preserve" width="512" height="512">
<g>
	<path style="fill:#3E4B5A;" d="M498.7,302.943c3.564,0,6.806,1.428,9.2,3.732l0.004-0.005l-64.25-95.923v92.196H498.7z"/>
	<polygon style="fill:#303F49;" points="476.622,259.966 443.654,210.747 443.654,302.943 476.622,302.943  "/>
	<path style="fill:#3E4B5A;" d="M13.299,302.943h55.046v-92.196L4.095,306.67l0.004,0.005   C6.493,304.371,9.735,302.943,13.299,302.943z"/>
	<path style="fill:#303F49;" d="M68.345,255.632v-44.885L4.095,306.67l0.004,0.005c2.394-2.304,5.636-3.732,9.2-3.732h23.357   L68.345,255.632z"/>
	<path style="fill:#FECA57;" d="M422.497,1.662h-89.679c12.802,0,23.217,10.415,23.217,23.217v276.003h89.679V24.879   C445.714,12.078,435.299,1.662,422.497,1.662z"/>
	<path style="fill:#F4B537;" d="M390.033,300.883V24.88c0-8.305-1.885-16.177-5.243-23.217h-51.973   c12.802,0,23.217,10.415,23.217,23.217v276.003H390.033z"/>
	<path style="fill:#E4EAF8;" d="M416.567,65.316c-0.009,0-0.018,0-0.027,0c-17.577,0-31.827-14.25-31.827-31.827   c0-0.861,0.036-1.714,0.105-2.556c0.121-1.487-1.083-2.749-2.575-2.749h-26.208v272.698h63.157V67.897   C419.192,66.454,418.01,65.314,416.567,65.316z"/>
	<path style="fill:#CCD2DB;" d="M384.713,33.489c0-0.861,0.036-1.714,0.105-2.556c0.121-1.487-1.083-2.749-2.575-2.749h-26.208   v272.698h33.998V51.103C386.674,46.059,384.713,40.004,384.713,33.489z"/>
	<path style="fill:#54A0FF;" d="M335.908,1.662H89.502c-12.802,0-23.217,10.415-23.217,23.217v276.003h292.841V24.88   C359.126,12.078,348.71,1.662,335.908,1.662z"/>
	<path style="fill:#338DEF;" d="M120.409,1.662H89.502c-12.802,0-23.217,10.415-23.217,23.217v276.003h30.907V24.88   C97.192,12.078,107.607,1.662,120.409,1.662z"/>
	<path style="fill:#576574;" d="M498.7,300.883H13.299C5.984,300.883,0,306.867,0,314.181v182.857   c0,7.314,5.984,13.299,13.299,13.299H498.7c7.314,0,13.299-5.984,13.299-13.299V314.181   C511.999,306.867,506.015,300.883,498.7,300.883z"/>
	<path style="fill:#3E4B5A;" d="M30.907,497.038V314.181c0-7.314,5.984-13.299,13.299-13.299H13.299   C5.984,300.883,0,306.867,0,314.181v182.857c0,7.314,5.984,13.299,13.299,13.299h30.907   C36.892,510.337,30.907,504.352,30.907,497.038z"/>
	<path style="fill:#3E4B5A;" d="M92.807,510.337v-13.853c0-7.314,5.985-13.299,13.299-13.299h299.788   c7.314,0,13.299,5.984,13.299,13.299v13.853H92.807z"/>
	<path style="fill:#303F49;" d="M137.013,483.185h-30.907c-7.314,0-13.299,5.984-13.299,13.299v13.853h30.907v-13.853   C123.714,489.169,129.698,483.185,137.013,483.185z"/>
	<path style="fill:#FFF6E9;" d="M452.847,350.758H352.335c-5.137,0-9.34,4.203-9.34,9.34v67.604c0,5.137,4.203,9.34,9.34,9.34   h100.512c5.137,0,9.34-4.202,9.34-9.34v-67.604C462.187,354.961,457.984,350.758,452.847,350.758z"/>
	<path style="fill:#F9E4C7;" d="M373.902,427.702v-67.604c0-5.137,4.203-9.34,9.34-9.34h-30.907c-5.137,0-9.34,4.203-9.34,9.34   v67.604c0,5.137,4.203,9.34,9.34,9.34h30.907C378.105,437.041,373.902,432.839,373.902,427.702z"/>
	<g>
		<path style="fill:#F9E4C7;" d="M432.611,387.337H372.57c-4.267,0-7.727-3.459-7.727-7.727c0-4.268,3.459-7.727,7.727-7.727h60.041    c4.267,0,7.727,3.459,7.727,7.727C440.338,383.879,436.879,387.337,432.611,387.337z"/>
	</g>
	<g>
		<path style="fill:#F9E4C7;" d="M432.611,415.916H372.57c-4.267,0-7.727-3.459-7.727-7.727s3.459-7.727,7.727-7.727h60.041    c4.267,0,7.727,3.459,7.727,7.727S436.879,415.916,432.611,415.916z"/>
	</g>
	<path style="fill:#E4EAF8;" d="M329.978,65.315c-0.009,0-0.018,0-0.027,0c-17.577,0-31.827-14.25-31.827-31.827   c0-0.861,0.036-1.714,0.105-2.556c0.121-1.487-1.083-2.748-2.575-2.748H129.755c-1.492,0-2.697,1.261-2.575,2.748   c0.069,0.842,0.105,1.695,0.105,2.556c0,17.577-14.249,31.827-31.827,31.827c-0.009,0-0.018,0-0.027,0   c-1.443-0.002-2.625,1.139-2.625,2.582v232.985h239.797V67.897C332.603,66.454,331.421,65.313,329.978,65.315z"/>
	<path style="fill:#CCD2DB;" d="M126.34,65.315c0.009,0,0.018,0,0.027,0c17.578,0,31.827-14.25,31.827-31.827   c0-0.861-0.036-1.714-0.105-2.556c-0.122-1.487,1.083-2.748,2.575-2.748h-30.907c-1.492,0-2.697,1.261-2.575,2.748   c0.069,0.842,0.105,1.695,0.105,2.556c0,17.577-14.249,31.827-31.827,31.827c-0.009,0-0.018,0-0.027,0   c-1.443-0.002-2.625,1.139-2.625,2.582v232.985h30.907V67.897C123.714,66.454,124.896,65.313,126.34,65.315z"/>
	<g>
		<path style="fill:#CCD2DB;" d="M285.77,156.808H139.64c-4.267,0-7.727-3.459-7.727-7.727s3.459-7.727,7.727-7.727H285.77    c4.267,0,7.727,3.459,7.727,7.727S290.038,156.808,285.77,156.808z"/>
	</g>
	<g>
		<path style="fill:#CCD2DB;" d="M285.77,194.758H139.64c-4.267,0-7.727-3.459-7.727-7.727s3.459-7.727,7.727-7.727H285.77    c4.267,0,7.727,3.459,7.727,7.727S290.038,194.758,285.77,194.758z"/>
	</g>
	<g>
		<path style="fill:#CCD2DB;" d="M255.497,118.858h-77.238c-4.267,0-7.727-3.459-7.727-7.727s3.459-7.727,7.727-7.727h77.238    c4.267,0,7.727,3.459,7.727,7.727S259.764,118.858,255.497,118.858z"/>
	</g>
	<g>
		<path style="fill:#CCD2DB;" d="M285.77,232.709H139.64c-4.267,0-7.727-3.459-7.727-7.727s3.459-7.727,7.727-7.727H285.77    c4.267,0,7.727,3.459,7.727,7.727S290.038,232.709,285.77,232.709z"/>
	</g>
	<g>
		<path style="fill:#CCD2DB;" d="M285.77,270.659H139.64c-4.267,0-7.727-3.459-7.727-7.727c0-4.268,3.459-7.727,7.727-7.727H285.77    c4.267,0,7.727,3.459,7.727,7.727C293.497,267.2,290.038,270.659,285.77,270.659z"/>
	</g>
</g>















</svg>
