<?xml version="1.0" encoding="iso-8859-1"?>
<!-- Generator: Adobe Illustrator 21.0.0, SVG Export Plug-In . SVG Version: 6.00 Build 0)  -->
<svg xmlns="http://www.w3.org/2000/svg" xmlns:xlink="http://www.w3.org/1999/xlink" version="1.1" id="Capa_1" x="0px" y="0px" viewBox="0 0 512 512" style="enable-background:new 0 0 512 512;" xml:space="preserve" width="512" height="512">
<g>
	<path style="fill:#E4EAF8;" d="M282.376,268.501c-4.927-7.609-4.927-17.394,0-25.003c46.251-71.421,120.377-23.098,120.377-164.472   H109.247c0,141.364,74.137,93.069,120.377,164.472c4.927,7.609,4.927,17.394,0,25.003   c-46.236,71.401-120.377,23.11-120.377,164.472h293.506C402.753,291.61,328.614,339.906,282.376,268.501z"/>
	<path style="fill:#CCD2DB;" d="M250.295,268.501c4.508-7.609,4.508-17.394,0-25.003c-42.307-71.403-110.14-23.108-110.14-164.472   h-30.907c0,141.364,74.137,93.069,120.377,164.472c4.927,7.609,4.927,17.394,0,25.003   c-46.236,71.401-120.377,23.11-120.377,164.472h30.907C140.155,291.612,207.991,339.902,250.295,268.501z"/>
	<path style="fill:#FECA57;" d="M362.937,359.191c-6.884-9.715-16.05-14.057-31.657-20.895c-3.291-1.442-6.718-2.945-10.228-4.587   c-0.372-0.174-0.781-0.267-1.192-0.267H192.141c-0.411,0-0.82,0.093-1.192,0.267c-3.51,1.642-6.937,3.145-10.228,4.587   c-15.608,6.838-24.773,11.179-31.657,20.895c-6.731,9.501-11.066,24.557-12.952,44.915h239.777   C374.003,383.748,369.668,368.692,362.937,359.191z"/>
	<path style="fill:#FECA57;" d="M180.586,173.644c0.045,0.02,0.09,0.039,0.135,0.059c10.67,4.675,22.765,9.973,34.509,18.644   c15.23,11.245,27.353,23.74,36.031,37.139c0.017,0.026,0.034,0.052,0.051,0.079c2.185,3.414,7.171,3.419,9.369,0.014l0.058-0.09   c8.679-13.401,20.802-25.896,36.033-37.141c11.743-8.671,23.838-13.97,34.508-18.644c0.045-0.02,0.09-0.039,0.135-0.059   c2.803-1.229,1.921-5.415-1.14-5.415h-148.55C178.665,168.229,177.783,172.415,180.586,173.644z"/>
	<path style="fill:#FECA57;" d="M362.937,359.191c-6.884-9.715-16.05-14.057-31.657-20.895c-3.291-1.442-6.718-2.945-10.228-4.587   c-0.372-0.174-0.781-0.267-1.192-0.267H192.141c-0.411,0-0.82,0.093-1.192,0.267c-3.51,1.642-6.937,3.145-10.228,4.587   c-15.608,6.838-24.773,11.179-31.657,20.895c-6.731,9.501-11.066,24.557-12.952,44.915h239.777   C374.003,383.748,369.668,368.692,362.937,359.191z"/>
	<path style="fill:#F4B537;" d="M211.628,338.297c3.291-1.442,6.718-2.945,10.228-4.587c0.372-0.174,0.781-0.267,1.192-0.267H192.14   c-0.411,0-0.82,0.093-1.192,0.267c-3.51,1.642-6.938,3.145-10.228,4.587c-15.608,6.838-24.773,11.179-31.657,20.895   c-6.731,9.501-11.066,24.557-12.952,44.915h30.907c1.886-20.358,6.22-35.414,12.952-44.915   C186.854,349.476,196.02,345.134,211.628,338.297z"/>
	<path style="fill:#F4B537;" d="M246.137,186.93c-9.961-8.356-20.17-13.952-29.552-18.7h-34.86c-3.06,0-3.942,4.186-1.139,5.415   c0.045,0.02,0.09,0.039,0.135,0.059c10.67,4.675,22.765,9.973,34.509,18.644c15.23,11.245,27.353,23.74,36.031,37.139   c0.017,0.026,0.034,0.052,0.051,0.079c2.185,3.414,7.171,3.419,9.369,0.014l0.058-0.09c3.368-5.201,7.262-10.263,11.648-15.171   C265.087,204.634,256.309,195.463,246.137,186.93z"/>
	<path style="fill:#3E4B5A;" d="M390.38,0H121.62c-6.805,0-12.373,5.568-12.373,12.373V31.08h293.506V12.373   C402.753,5.568,397.185,0,390.38,0z"/>
	<path style="fill:#303F49;" d="M152.527,0H121.62c-6.805,0-12.373,5.568-12.373,12.373V31.08h30.907V12.373   C140.155,5.568,145.723,0,152.527,0z"/>
	<path style="fill:#576574;" d="M412.969,27.989H99.031c-6.805,0-12.373,5.568-12.373,12.373v29.382   c0,6.805,5.568,12.373,12.373,12.373h313.938c6.805,0,12.373-5.568,12.373-12.373V40.362   C425.342,33.557,419.774,27.989,412.969,27.989z"/>
	<path style="fill:#576574;" d="M390.38,512H121.62c-6.805,0-12.373-5.568-12.373-12.373V480.92h293.506v18.708   C402.753,506.432,397.185,512,390.38,512z"/>
	<path style="fill:#3E4B5A;" d="M140.155,499.627V480.92h-30.907v18.708c0,6.805,5.568,12.373,12.373,12.373h30.907   C145.723,512,140.155,506.432,140.155,499.627z"/>
	<path style="fill:#3E4B5A;" d="M412.969,484.011H99.031c-6.805,0-12.373-5.568-12.373-12.373v-29.382   c0-6.805,5.568-12.373,12.373-12.373h313.938c6.805,0,12.373,5.568,12.373,12.373v29.382   C425.342,478.443,419.774,484.011,412.969,484.011z"/>
	<path style="fill:#3E4B5A;" d="M412.969,50.179H99.031c-6.373,0-11.661-4.884-12.306-11.095c-0.044,0.42-0.067,0.846-0.067,1.278   v29.382c0,6.805,5.568,12.373,12.373,12.373h313.938c6.805,0,12.372-5.568,12.372-12.373V40.362c0-0.431-0.023-0.857-0.067-1.278   C424.63,45.295,419.342,50.179,412.969,50.179z"/>
	<path style="fill:#303F49;" d="M412.969,452.073H99.031c-6.373,0-11.661-4.884-12.306-11.095c-0.044,0.42-0.067,0.846-0.067,1.278   v29.382c0,6.805,5.568,12.372,12.373,12.372h313.938c6.805,0,12.372-5.568,12.372-12.372v-29.382c0-0.431-0.023-0.857-0.067-1.278   C424.63,447.189,419.342,452.073,412.969,452.073z"/>
</g>















</svg>
