<?xml version="1.0" encoding="iso-8859-1"?>
<!-- Generator: Adobe Illustrator 19.0.0, SVG Export Plug-In . SVG Version: 6.00 Build 0)  -->
<svg version="1.1" id="Layer_1" xmlns="http://www.w3.org/2000/svg" xmlns:xlink="http://www.w3.org/1999/xlink" x="0px" y="0px"
	 viewBox="0 0 473.935 473.935" style="enable-background:new 0 0 473.935 473.935;" xml:space="preserve">
<circle style="fill:#EFC849;" cx="236.967" cy="236.967" r="236.967"/>
<path style="fill:#F5F5F5;" d="M144.396,93.788c-8.823,0-15.981,7.158-15.981,15.985v255.755c0,8.827,7.158,15.981,15.981,15.981
	h183.827c8.827,0,15.981-7.154,15.981-15.981V167.812l-77.047-74.024H144.396z"/>
<path style="fill:#E1E1E1;" d="M344.207,167.812h-61.066c-8.827,0-15.981-7.154-15.981-15.981V93.788L344.207,167.812z"/>
<g>
	<path style="fill:#C9C9C8;" d="M321.719,189.641c0,2.754-2.234,4.992-4.992,4.992H157.08c-2.754,0-4.988-2.238-4.988-4.992l0,0
		c0-2.754,2.234-4.992,4.988-4.992h159.647C319.485,184.65,321.719,186.887,321.719,189.641L321.719,189.641z"/>
	<path style="fill:#C9C9C8;" d="M321.719,215.834c0,2.754-2.234,4.992-4.992,4.992H157.08c-2.754,0-4.988-2.238-4.988-4.992l0,0
		c0-2.754,2.234-4.992,4.988-4.992h159.647C319.485,210.842,321.719,213.08,321.719,215.834L321.719,215.834z"/>
	<path style="fill:#C9C9C8;" d="M321.719,240.78c0,2.754-2.234,4.992-4.992,4.992H157.08c-2.754,0-4.988-2.238-4.988-4.992l0,0
		c0-2.758,2.234-4.988,4.988-4.988h159.647C319.485,235.789,321.719,238.023,321.719,240.78L321.719,240.78z"/>
	<path style="fill:#C9C9C8;" d="M321.719,266.973c0,2.754-2.234,4.992-4.992,4.992H157.08c-2.754,0-4.988-2.238-4.988-4.992l0,0
		c0-2.754,2.234-4.992,4.988-4.992h159.647C319.485,261.981,321.719,264.219,321.719,266.973L321.719,266.973z"/>
	<path style="fill:#C9C9C8;" d="M240.649,288.174H157.08c-2.754,0-4.988,2.238-4.988,4.992s2.234,4.992,4.988,4.992h83.569
		c2.758,0,4.992-2.238,4.992-4.992S243.407,288.174,240.649,288.174z"/>
</g>
<circle style="fill:#49A0AE;" cx="328.23" cy="358.014" r="57.062"/>
<path style="fill:#9ED8D8;" d="M359.324,347.047h-0.232c-0.513-1.572-1.156-3.091-1.897-4.554l0.157-0.168
	c2.761-2.754,2.589-7.805-0.947-11.334l-2.125-2.155c-3.558-3.536-8.385-3.925-11.349-0.943l-0.153,0.153
	c-1.463-0.737-3.02-1.366-4.58-1.893v-0.221c0-3.895-3.701-7.353-8.685-7.353h-3.042c-5.007,0-8.707,3.121-8.707,7.353v0.221
	c-1.56,0.528-3.094,1.156-4.554,1.893l-0.15-0.153c-2.357-2.324-7.798-2.593-11.353,0.943l-2.129,2.155
	c-3.536,3.529-3.502,8.793-0.969,11.334l0.18,0.168c-0.741,1.463-1.381,2.982-1.893,4.554h-0.236c-3.297,0-7.353,3.689-7.353,8.688
	v3.053c0,4.992,3.775,8.673,7.353,8.673h0.236c0.513,1.587,1.152,3.106,1.893,4.569l-0.18,0.153
	c-2.327,2.339-2.571,7.82,0.969,11.349l2.129,2.155c3.555,3.536,8.816,3.48,11.353,0.943l0.15-0.153
	c1.459,0.745,2.993,1.366,4.554,1.878v0.221c0,3.296,3.701,7.368,8.707,7.368h3.042c4.984,0,8.685-3.757,8.685-7.368v-0.206
	c1.56-0.528,3.117-1.149,4.58-1.893l0.153,0.153c2.758,2.761,7.79,2.593,11.349-0.943l2.125-2.155
	c3.536-3.529,3.94-8.352,0.947-11.349l-0.157-0.153c0.741-1.463,1.384-2.982,1.897-4.569h0.232c3.91,0,7.353-3.682,7.353-8.673
	v-3.053C366.676,350.74,363.541,347.047,359.324,347.047z M327.994,378.553c-11.749,0-21.287-9.523-21.287-21.287
	s9.542-21.302,21.287-21.302c11.753,0,21.287,9.538,21.287,21.302S339.747,378.553,327.994,378.553z"/>
<g>
</g>
<g>
</g>
<g>
</g>
<g>
</g>
<g>
</g>
<g>
</g>
<g>
</g>
<g>
</g>
<g>
</g>
<g>
</g>
<g>
</g>
<g>
</g>
<g>
</g>
<g>
</g>
<g>
</g>
</svg>
